<svg version="1.1" xmlns="http://www.w3.org/2000/svg" viewBox="0 0 2224.6627187267313 541.0191309890893">
  <!-- svg-source:excalidraw -->
  <defs>
    <style>
      @font-face {
        font-family: "Virgil";
        src: url("https://excalidraw.com/FG_Virgil.woff2");
      }
      @font-face {
        font-family: "Cascadia";
        src: url("https://excalidraw.com/Cascadia.woff2");
      }
    </style>
  </defs>
  <rect x="0" y="0" width="2224.6627187267313" height="541.0191309890893" fill="#ffffff"></rect><g transform="translate(221.0010281432398 189.79443637333964) rotate(0 137.17187499999997 36.85546875)"><path d="M-1.0273893115509327 0.09058972493308692 C96.8289086051969 0.5255022331128367, 196.12209798764658 1.5025225103608433, 273.95621345584277 -0.6784079135568114 M0.730950573221106 -0.5305198189922398 C66.17299215301632 0.45319847036810745, 133.0677760578748 0.0196008981982585, 274.4256914172592 0.6034126191769398 M275.5293071512133 0.029246216639876366 C274.23755433379665 25.80838160367057, 273.32641883908764 49.61352368930966, 273.634950960055 75.27248031459749 M274.7115850178525 -0.235853242687881 C273.4582453355066 26.245668357074464, 273.69006249158303 52.94991963975917, 275.3200308708474 73.76485417503864 M273.13573336665104 74.52593886318415 C176.26260772678515 76.13639722229172, 76.16405830938837 74.91242683599617, 0.5571679573162748 73.70498871389756 M274.46094432852027 73.33673412563964 C165.17752355284196 72.85337107268069, 55.69085400989067 73.9970394721359, 0.7488224088248852 74.44759448603264 M1.2177800182253122 73.1701972540468 C1.977210504147297 48.28577442293681, 1.0416571322410164 24.183095595122715, -0.3787360545247793 -1.9680879656225443 M0.30334082525223494 74.27591325063258 C-0.18222767264705908 58.369435269782116, 0.34930452554363 41.64863863201026, -0.9683650704100728 0.04968623537570238" stroke="#000000" stroke-width="1" fill="none"></path></g><g transform="translate(260.17290314324 214.14990512333964) rotate(0 98 12.5)"><text x="98" y="18" font-family="Virgil, Segoe UI Emoji" font-size="20px" fill="#000000" text-anchor="middle" style="white-space: pre;" direction="ltr">responseCachePlugin</text></g><g><g transform="translate(273.9463406432399 65.32959262333964) rotate(0 -0.11621106123402569 55.0081879351288)"><path d="M0.05049063228070727 -1.1666891779750586 C0.25946092866361137 17.25710731285314, 1.2622447397559882 92.70893171963593, 1.1466899659484626 111.18306504823268 M-1.3821405151113868 0.8351950582489374 C-1.2214821019396185 18.856077064337832, 0.8613043591752649 91.1258207075422, 0.800656734444201 109.41294710602611" stroke="#000000" stroke-width="1" fill="none"></path></g><g transform="translate(273.9463406432399 65.32959262333964) rotate(0 -0.11621106123402569 55.0081879351288)"><path d="M-11.818813061602324 83.28760948805187 C-5.498632039458766 88.46121759449191, -4.899695346788228 96.54382203431015, 0.25309539254754787 110.07941241268068 M-10.154417663141995 81.3178885665727 C-6.257316370401859 88.4595131412168, -4.43875137802009 94.48655929397427, 1.644629638120532 108.8289804662019" stroke="#000000" stroke-width="1" fill="none"></path></g><g transform="translate(273.9463406432399 65.32959262333964) rotate(0 -0.11621106123402569 55.0081879351288)"><path d="M8.700166484992025 82.98515163597601 C9.049453761684664 88.25543032864334, 3.6758828792417235 96.42607188592999, 0.25309539254754787 110.07941241268068 M10.364561883452353 81.01543071449684 C9.189246239859454 88.08717596115392, 5.932628853617546 94.18903230404027, 1.644629638120532 108.8289804662019" stroke="#000000" stroke-width="1" fill="none"></path></g></g><g><g transform="translate(275.7861843932398 274.8999051233394) rotate(0 -0.47501346005984146 66.01189718754964)"><path d="M0.2699196729809046 -0.3074655387550592 C0.1285452399402857 21.540740699196853, -0.01371363066136836 109.89665205342074, -0.06902124546468258 132.27624142430722 M-1.047511228043586 -1.514488891940564 C-1.4211285272426903 20.998325009762006, -1.084532155711204 111.24562937281407, -1.0533028629608454 133.53828326703982" stroke="#000000" stroke-width="1" fill="none"></path></g><g transform="translate(275.7861843932398 274.8999051233394) rotate(0 -0.47501346005984146 66.01189718754964)"><path d="M-11.893767669187472 105.25709873214103 C-8.207885647189023 115.52451917345209, -1.615775473041893 125.19054268429656, 0.29713867669925076 132.70184419954197 M-10.713999277302609 105.85714340638108 C-8.161375036544149 113.73443874403713, -4.522080207236873 123.61191528917601, -1.2021108030341567 134.43020798822866" stroke="#000000" stroke-width="1" fill="none"></path></g><g transform="translate(275.7861843932398 274.8999051233394) rotate(0 -0.47501346005984146 66.01189718754964)"><path d="M8.62738219647558 105.2080011065695 C4.824854897464699 115.539497862277, 3.9280700916210254 125.22343883701015, 0.29713867669925076 132.70184419954197 M9.807150588360443 105.80804578080955 C5.947340913940324 113.5240814860303, 3.1740095188871944 123.41690048143901, -1.2021108030341567 134.43020798822866" stroke="#000000" stroke-width="1" fill="none"></path></g></g><g transform="translate(32.54843616767363 108.32478836650023) rotate(0 112.5 9.5)"><text x="0" y="15" font-family="Cascadia, Segoe UI Emoji" font-size="16px" fill="#000000" text-anchor="start" style="white-space: pre;" direction="ltr">ctx.__nodeFQCKeySet = []</text></g><g transform="translate(306.1761583515735 447.63601623445066) rotate(0 51.5 12.5)"><text x="51.5" y="18" font-family="Virgil, Segoe UI Emoji" font-size="20px" fill="#000000" text-anchor="middle" style="white-space: pre;" direction="ltr">@logCache</text></g><g><g transform="translate(430.30571564324003 406.2324230843236) rotate(0 -0.11052686074444296 -63.92495683535003)"><path d="M0.4940957341343164 -0.7048176024109125 C0.6311083707958459 -21.878461307215815, 0.18091454841196528 -106.4269735735065, 0.1495140228420495 -127.47237135240809 M-0.705642734784633 1.53954921098426 C-0.654719752687961 -19.9678099940562, -0.7877241826243699 -107.65715942844437, -0.7200365787930787 -129.3894628816843" stroke="#000000" stroke-width="1" fill="none"></path></g><g transform="translate(430.30571564324003 406.2324230843236) rotate(0 -0.11052686074444296 -63.92495683535003)"><path d="M8.351594142088608 -100.94430170150594 C7.780148992808315 -107.5203121430494, 6.1058034293220125 -113.38221912749752, 0.5705437180958688 -127.78795175530016 M9.98549565713288 -100.88426899945483 C7.515782673386521 -107.9594116791717, 4.383535648293277 -114.186577453435, -0.9771446981094778 -130.25549040358513" stroke="#000000" stroke-width="1" fill="none"></path></g><g transform="translate(430.30571564324003 406.2324230843236) rotate(0 -0.11052686074444296 -63.92495683535003)"><path d="M-12.169611826046662 -100.9546939682934 C-7.734880731695679 -107.6126645193374, -4.4030127685034826 -113.4720362772182, 0.5705437180958688 -127.78795175530016 M-10.53571031100239 -100.8946612662423 C-8.343370510607397 -107.89965456960492, -6.813628752279003 -114.1244594382142, -0.9771446981094778 -130.25549040358513" stroke="#000000" stroke-width="1" fill="none"></path></g></g><g><g transform="translate(426.54009064324026 173.98584262333964) rotate(0 0.6438783170096656 -54.22249733690174)"><path d="M1.1379627015441656 -0.6024337615817785 C1.0815143730491399 -18.733630836630862, 0.9082533385604621 -90.27275580627223, 0.7198946859687567 -108.2472073521465 M0.2762543905153869 1.6956845682486894 C0.03214940074831232 -16.850208769875266, 0.3214674723520875 -92.02330355071774, 0.1497939324751496 -110.14067924205214" stroke="#000000" stroke-width="1" fill="none"></path></g><g transform="translate(426.54009064324026 173.98584262333964) rotate(0 0.6438783170096656 -54.22249733690174)"><path d="M9.462314540607794 -80.77051146735258 C7.0618668778268425 -92.79564639228954, 2.720253507245923 -101.79419920404123, -1.1863894907012582 -109.05069939043373 M10.827723295515343 -81.12450332508243 C7.492569838720762 -88.15154244057696, 5.983921395317965 -94.52878233999566, 0.9232374646514654 -109.24793755911291" stroke="#000000" stroke-width="1" fill="none"></path></g><g transform="translate(426.54009064324026 173.98584262333964) rotate(0 0.6438783170096656 -54.22249733690174)"><path d="M-11.058853580483786 -80.72975202999136 C-5.492851406326222 -92.96531309500402, -1.8678315309587141 -101.97968934754874, -1.1863894907012582 -109.05069939043373 M-9.693444825576238 -81.08374388772121 C-8.495898518139802 -87.96878301183614, -5.472018631110271 -94.35502548379272, 0.9232374646514654 -109.24793755911291" stroke="#000000" stroke-width="1" fill="none"></path></g></g><g transform="translate(452.68331980990695 309.1095405400059) rotate(0 112.5 38)"><text x="0" y="15" font-family="Cascadia, Segoe UI Emoji" font-size="16px" fill="#000000" text-anchor="start" style="white-space: pre;" direction="ltr">ctx.__nodeFQCKeySet = [</text><text x="0" y="34" font-family="Cascadia, Segoe UI Emoji" font-size="16px" fill="#000000" text-anchor="start" style="white-space: pre;" direction="ltr">  'node-fqcs:Article:1',</text><text x="0" y="53" font-family="Cascadia, Segoe UI Emoji" font-size="16px" fill="#000000" text-anchor="start" style="white-space: pre;" direction="ltr">  'node-fqcs:Comment:2'</text><text x="0" y="72" font-family="Cascadia, Segoe UI Emoji" font-size="16px" fill="#000000" text-anchor="start" style="white-space: pre;" direction="ltr">]</text></g><g transform="translate(220.58752367895414 30.21426524238734) rotate(0 54 10)"><text x="0" y="14" font-family="Virgil, Segoe UI Emoji" font-size="16px" fill="#000000" text-anchor="start" style="white-space: pre;" direction="ltr">query request</text></g><g transform="translate(371.0512513575257 29.54704054000638) rotate(0 58.00000000000003 10)"><text x="0" y="14" font-family="Virgil, Segoe UI Emoji" font-size="16px" fill="#000000" text-anchor="start" style="white-space: pre;" direction="ltr">query response</text></g><g><g transform="translate(523.9658718932402 222.67334262333964) rotate(0 149.45676857639825 -0.03570528515874116)"><path d="M0.24640077687799922 -0.38809932209551334 C50.164047493154726 -0.4991271946579218, 249.19198729452947 0.24034790061414246, 298.6671363759185 0.3259863641113043" stroke="#000000" stroke-width="1.5" fill="none" stroke-dasharray="12 8"></path></g><g transform="translate(523.9658718932402 222.67334262333964) rotate(0 149.45676857639825 -0.03570528515874116)"><path d="M269.80119361364257 11.27111757783132 C277.4004978817051 6.253748496333689, 283.56008891912205 5.069841255231874, 298.5924549392755 -0.6216418303549289" stroke="#000000" stroke-width="1.5" fill="none"></path></g><g transform="translate(523.9658718932402 222.67334262333964) rotate(0 149.45676857639825 -0.03570528515874116)"><path d="M269.85807406894924 -9.250012191254092 C277.61395748481533 -9.54525661888096, 283.76046006365306 -6.00715600101515, 298.5924549392755 -0.6216418303549289" stroke="#000000" stroke-width="1.5" fill="none"></path></g></g><g transform="translate(863.2509637986963 127.58788770741654) rotate(0 272.306640625 120.00619182180849)"><path d="M-0.4790632463991642 -0.061966934055089955 C133.51133449394004 1.2803548333836807, 265.2127452652851 1.3194330451680436, 544.3359710238874 -0.4419246815145016 M-0.30631001703441146 -0.29083226807415485 C207.52119052295714 -0.41448890830889307, 415.63650119783637 -0.18230510618105492, 544.2228894997388 0.19982314221560957 M542.9762665904823 1.4032016869983446 C546.8400920746498 74.61755153850582, 546.2975724984083 150.79941884428507, 545.6712023329001 240.10617486167402 M544.4695112576337 -0.354144237483949 C546.9214485944437 86.98612987377003, 546.0751254350953 173.1444325664591, 545.123371400623 240.77645032387224 M543.8920098565519 239.520950509687 C409.4078646822625 242.1094337258315, 275.382339960854 241.94099088048696, 0.7376883529126644 239.36686709084088 M544.7352763105184 240.03594992653007 C362.783900003837 240.46179905700257, 180.77035824610573 241.02915207910112, 0.04965420253574848 240.07039424673192 M-1.2598998249933975 239.59463247004547 C-0.7790831887131415 155.16455550070543, -1.522240147824713 67.53711765049957, -0.7781038588294091 1.1391661521066323 M-0.567936232587808 240.11920961628778 C0.26141546517961906 185.32888005619915, 0.7751743407924708 130.34523608050517, -0.7830655560917082 -0.04845373868673738" stroke="#000000" stroke-width="1" fill="none"></path></g><g transform="translate(871.6689325486963 136.37695020741654) rotate(0 23.5 12.5)"><text x="0" y="18" font-family="Virgil, Segoe UI Emoji" font-size="20px" fill="#000000" text-anchor="start" style="white-space: pre;" direction="ltr">redis</text></g><g transform="translate(874.0264790912491 175.98898478188454) rotate(0 225 95)"><text x="0" y="15" font-family="Cascadia, Segoe UI Emoji" font-size="16px" fill="#000000" text-anchor="start" style="white-space: pre;" direction="ltr"># full query response cache</text><text x="0" y="34" font-family="Cascadia, Segoe UI Emoji" font-size="16px" fill="#000000" text-anchor="start" style="white-space: pre;" direction="ltr">| key                 | value                  |</text><text x="0" y="53" font-family="Cascadia, Segoe UI Emoji" font-size="16px" fill="#000000" text-anchor="start" style="white-space: pre;" direction="ltr">| fqc:47ea290         | {"data":{"viewer":...} |</text><text x="0" y="72" font-family="Cascadia, Segoe UI Emoji" font-size="16px" fill="#000000" text-anchor="start" style="white-space: pre;" direction="ltr"></text><text x="0" y="91" font-family="Cascadia, Segoe UI Emoji" font-size="16px" fill="#000000" text-anchor="start" style="white-space: pre;" direction="ltr"></text><text x="0" y="110" font-family="Cascadia, Segoe UI Emoji" font-size="16px" fill="#000000" text-anchor="start" style="white-space: pre;" direction="ltr"># node:fqc mapping</text><text x="0" y="129" font-family="Cascadia, Segoe UI Emoji" font-size="16px" fill="#000000" text-anchor="start" style="white-space: pre;" direction="ltr">| key                 | value                  |</text><text x="0" y="148" font-family="Cascadia, Segoe UI Emoji" font-size="16px" fill="#000000" text-anchor="start" style="white-space: pre;" direction="ltr">| node-fqcs:Article:1 | ["47ea290"]            |</text><text x="0" y="167" font-family="Cascadia, Segoe UI Emoji" font-size="16px" fill="#000000" text-anchor="start" style="white-space: pre;" direction="ltr">| node-fqcs:Comment:2 | ["47ea290"]            |</text><text x="0" y="186" font-family="Cascadia, Segoe UI Emoji" font-size="16px" fill="#000000" text-anchor="start" style="white-space: pre;" direction="ltr"></text></g><g transform="translate(214.74278161546198 426.61344679000615) rotate(0 142.28298611111106 34.03862847222223)"><path d="M90.16231736238021 3.1277387337240476 C105.22113628951048 1.2553483535535541, 127.37469017641071 0.6487917321556296, 145.26788775224816 0.4244101486255545 C163.16108532808562 0.2000285650954794, 181.0977488767619 0.048492722641327646, 197.5215028174049 1.781449232543597 C213.9452567580479 3.5144057424458666, 231.08021320803869 7.661483575619604, 243.8104113961062 10.822149208039171 C256.5406095841737 13.982814840458738, 267.1464901463397 16.868984103771147, 273.9026919458099 20.745443027061004 C280.6588937452801 24.62190195035086, 284.1567568511513 29.6182077489379, 284.3476221929275 34.08090274777831 C284.5384875347037 38.54359774661872, 281.7049922433232 43.56851289692395, 275.047883996467 47.52161302010349 C268.39077574961084 51.474713143283026, 257.07922161991524 54.95953289625815, 244.40497271179044 57.79950348685555 C231.73072380366563 60.639474077452945, 215.426609409163 62.82731461380803, 199.00239054771816 64.56143656368788 C182.57817168627332 66.29555851356773, 163.80109909990844 67.85898856749223, 145.8596595431214 68.20423518613464 C127.91821998633439 68.54948180477705, 108.17139603759614 68.18066060133303, 91.35375320699603 66.63291627554229 C74.53611037639592 65.08517194975154, 57.85566356777414 62.0497719049524, 44.95380255952081 58.91776923139015 C32.05194155126748 55.785766557827905, 21.55150776960533 51.770656152579285, 13.942587157476055 47.84090023416881 C6.33366654534678 43.91114431575833, 0.1403974149911562 39.5016675060495, -0.6997211132548387 35.3392337209273 C-1.5398396415008335 31.176799935805093, 2.763038145799392 26.97164537029652, 8.901875988000086 22.866297523435584 C15.04071383020078 18.760949676574647, 24.288757070050302 13.803576064438447, 36.133305939949324 10.707146639761675 C47.977854809848345 7.610717215084902, 68.68331699840891 5.950830371795198, 79.9691692073942 4.2877209753749455 C91.25502141637949 2.624611578954693, 97.76461579495964 1.3136619296039727, 103.84841919386108 0.7284902612401609 C109.93222259276251 0.14331859287634907, 115.97473246540761 0.03866704090230755, 116.47198960080287 0.7766909651920741 M96.96182305676666 1.906248511253544 C112.21893332299268 -0.01385677263409768, 132.31613449060472 -0.9485473735594543, 150.1705094409181 -0.584167207978588 C168.02488439123147 -0.21978704239772168, 187.7464731149434 2.2553740610008495, 204.08807275864694 4.092529504738742 C220.4296724023505 5.929684948476635, 236.22881576526126 7.424066850561358, 248.22010730313946 10.438765454448767 C260.2113988410177 13.453464058336175, 270.1029837323805 17.95370409613701, 276.0358219859162 22.18072112806319 C281.9686602394519 26.40773815998937, 284.71253227478263 31.22360866830957, 283.81713682435344 35.80086764600585 C282.92174137392425 40.37812662370212, 278.0394531611275 45.68406632068176, 270.663449283341 49.64427499424085 C263.2874454055545 53.60448366779995, 252.42316448417353 56.99444708284253, 239.56111355763434 59.56211968736041 C226.69906263109516 62.12979229187829, 210.3151555373053 63.670351420698644, 193.49114372410588 65.05031062134816 C176.66713191090648 66.43026982199768, 156.5894259813689 67.69716104605726, 138.61704267843797 67.84187489125752 C120.64465937550705 67.98658873645778, 101.9946472617612 67.57234986996365, 85.65684390652032 65.9185936925497 C69.31904055127944 64.26483751513577, 52.887036676008414 61.249461516372826, 40.59022254699265 57.919337826773855 C28.293408417976885 54.589214137174885, 18.41541187002051 49.97122340836359, 11.875959132425749 45.93785155495587 C5.336506394830988 41.90447970154815, 1.3369758206680349 37.995686778580435, 1.3535061214240898 33.71910670632751 C1.3700364221801447 29.442526634074582, 5.623020627948904 24.235125265736166, 11.975140936962077 20.2783711214383 C18.32726124597525 16.321616977140437, 26.970800246016502 12.840345579017944, 39.46622797550313 9.978581840540322 C51.96165570498976 7.1168181020627, 77.26632271092892 4.482036381999678, 86.94770731388186 3.1077886905725727 C96.62909191683481 1.733540999145467, 95.46268843378398 1.6083880649864462, 97.55453559322083 1.733095691977688 C99.64638275265769 1.85780331896893, 98.77151993903219 3.285354296647167, 99.49879027050301 3.8560344525200243" stroke="#000000" stroke-width="1" fill="none"></path></g><g transform="translate(1833.890512070212 234.00797804000615) rotate(0 63.5 12.5)"><text x="63.5" y="18" font-family="Virgil, Segoe UI Emoji" font-size="20px" fill="#000000" text-anchor="middle" style="white-space: pre;" direction="ltr">@purgeCache</text></g><g transform="translate(1754.4571353341007 212.9854085955618) rotate(0 142.2829861111111 34.03862847222223)"><path d="M125.14733290403757 1.2546233668599953 C141.80846535316442 0.3938969299811751, 161.2037905891248 0.6990865604026826, 178.42889888214947 1.7874794681776507 C195.65400717517414 2.8758723759526186, 214.04490060765553 5.3734217958002795, 228.49798266218562 7.784980813509804 C242.9510647167157 10.19653983121933, 256.15727724681574 12.878098370963343, 265.14739120933 16.2568335744348 C274.1375051718443 19.635568777906258, 279.78039154052686 23.7658689120805, 282.4386664372713 28.057392034338548 C285.09694133401575 32.3489151565966, 285.2519616853482 37.67158763376954, 281.0970405897966 42.0059723079831 C276.94211949424505 46.34035698219666, 268.1480451213016 50.476892848028946, 257.50913986396205 54.06370007961989 C246.87023460662246 57.65050731121084, 232.30804481509014 61.17177861759541, 217.26360904575913 63.52681569752879 C202.2191732764281 65.88185277746217, 184.73012694533716 67.70363787052734, 167.24252524797595 68.19392255922017 C149.75492355061473 68.684207247913, 130.05777453946212 67.43954815540742, 112.3379988615919 66.46852382968572 C94.6182231837217 65.49749950396402, 75.77208942882608 64.54215020597975, 60.92387118075473 62.36777660488997 C46.075652932683376 60.193403003800185, 32.91470146601693 56.90560008539328, 23.248689373163785 53.422282223147 C13.582677280310639 49.93896436090072, 6.519628251034428 45.64719589767448, 2.9277986236358515 41.467869431412296 C-0.6640310037627253 37.288542965150114, -1.7405004682499836 32.83338511705683, 1.6977116087723232 28.346323425573907 C5.13592368579463 23.859261734090985, 13.446478801619776 18.133513898774506, 23.557071085769692 14.545499282514772 C33.66766336991961 10.957484666255038, 47.475682472210245 9.105381451115619, 62.36126531367182 6.818235728015505 C77.24684815513339 4.5310900049153915, 101.704867943368 1.8809120432949846, 112.87056813453916 0.8226249439140858 C124.03626832571031 -0.23566215546681302, 125.76957565876052 0.6008653602790931, 129.35546646069875 0.4685131317301128 C132.94135726263698 0.33616090318113245, 134.2708916863617 -0.5838717371407091, 134.3859129461686 0.02851157262020365 M180.881950257729 1.7786706271069548 C197.56311168137844 2.4500427495104358, 215.66627355745416 5.990418261880912, 229.96318453224958 8.699672252658772 C244.260095507045 11.408926243436632, 257.5192056211298 14.323391827408466, 266.6634161065015 18.03419457177412 C275.80762659187315 21.744997316139774, 282.81804564312046 26.806930126197656, 284.82844744447965 30.964488718852692 C286.83884924583884 35.12204731150773, 283.3997303931956 38.883921621700864, 278.72582691465675 42.979546127704324 C274.0519234361179 47.075170633707785, 267.5094588717767 52.32704922672431, 256.78502657324645 55.53823575487347 C246.0605942747162 58.749422283022625, 229.73336379013 60.41848799561851, 214.37923312347522 62.24666529659924 C199.02510245682043 64.07484259757996, 182.46942537150457 65.6148184369972, 164.66024257331784 66.50729956075782 C146.85105977513112 67.39978068451843, 124.99416020915663 68.65653219525824, 107.52413633435484 67.60155203916298 C90.05411245955304 66.54657188306773, 74.24248532990727 62.58971295219414, 59.84009932450705 60.17741862418632 C45.437713319106834 57.765124296178506, 30.9606375692371 56.68048261894119, 21.109820301953548 53.12778607111608 C11.259003034669995 49.57508952329096, 3.910829405726709 43.21868479963805, 0.7351957208057343 38.86123933723564 C-2.4404379641152403 34.50379387483323, -2.2013399843826207 31.223681933671646, 2.0560181924277003 26.983113296701603 C6.313376369238021 22.74254465973156, 16.061309324105487 17.07963989892602, 26.27934478166766 13.417827515415386 C36.497380239229834 9.756015131904755, 48.60110935208751 7.138117061783177, 63.364230937800755 5.012238995637819 C78.12735252351399 2.886360929492462, 96.98312490805398 1.3306171084539873, 114.8580742959471 0.6625591185432427 C132.73302368384023 -0.005498871367501934, 159.4929775406639 1.0398132049051085, 170.61392726515953 1.0038910561733516 C181.73487698965516 0.9679689074415947, 179.74581745110572 0.18961697592904514, 181.5837726429209 0.44702622615270116 C183.4217278347361 0.7044354763763572, 182.26756661852377 2.015550148064239, 181.6416584160507 2.5483465575152877" stroke="#000000" stroke-width="1" fill="none"></path></g><g><g transform="translate(1429.1504679188388 279.323578057885) rotate(0 154.9154296957778 -0.3192798375517043)"><path d="M-1.0680682506412267 0.07747329734265795 C50.708060990798046 -0.19435245729982858, 258.86903138720777 -0.8181044433265924, 310.89892764219684 -0.7024191353470086" stroke="#000000" stroke-width="1.5" fill="none" stroke-dasharray="12 8"></path></g><g transform="translate(1429.1504679188388 279.323578057885) rotate(0 154.9154296957778 -0.3192798375517043)"><path d="M282.84569666176014 10.437197856390615 C290.4897100916716 7.749370287021712, 301.9697913881871 2.557779780364962, 311.7488402502392 -2.570916322618723" stroke="#000000" stroke-width="1.5" fill="none"></path></g><g transform="translate(1429.1504679188388 279.323578057885) rotate(0 154.9154296957778 -0.3192798375517043)"><path d="M282.8288646658132 -10.084003840141499 C290.6370562038373 -6.201216585769633, 302.1225267578653 -4.822342083022832, 311.7488402502392 -2.570916322618723" stroke="#000000" stroke-width="1.5" fill="none"></path></g></g><g><g transform="translate(1724.0641079525212 244.14426212180848) rotate(0 -146.68699117400627 -0.3148458626121169)"><path d="M-0.8291630242019892 0.27165874578058724 C-49.61192639527514 -0.020321461185812906, -244.07089269895326 -0.8679468479007482, -292.5448193238106 -0.9013504710048437" stroke="#000000" stroke-width="1.5" fill="none" stroke-dasharray="12 8"></path></g><g transform="translate(1724.0641079525212 244.14426212180848) rotate(0 -146.68699117400627 -0.3148458626121169)"><path d="M-263.8723255722241 -11.68319927904765 C-274.5779889142329 -7.241728402007055, -281.7798161675144 -5.775164971224727, -292.9070348371741 -1.4063960395753383" stroke="#000000" stroke-width="1.5" fill="none"></path></g><g transform="translate(1724.0641079525212 244.14426212180848) rotate(0 -146.68699117400627 -0.3148458626121169)"><path d="M-263.93045285980077 8.837926996190722 C-274.76339163930436 6.863936245099474, -281.94704558551035 1.9146364061036616, -292.9070348371741 -1.4063960395753383" stroke="#000000" stroke-width="1.5" fill="none"></path></g></g><g transform="translate(1461.468261248106 284.63293466301053) rotate(359.5643437725091 117 9.5)"><text x="0" y="15" font-family="Cascadia, Segoe UI Emoji" font-size="16px" fill="#000000" text-anchor="start" style="white-space: pre;" direction="ltr">(1) read fqc keys by node</text></g><g transform="translate(1512.1977327752797 217.20275086661093) rotate(0.1966785900874775 61 9.5)"><text x="0" y="15" font-family="Cascadia, Segoe UI Emoji" font-size="16px" fill="#000000" text-anchor="start" style="white-space: pre;" direction="ltr">(2) purge fqc</text></g><g transform="translate(551.6584122158201 192.97903818785568) rotate(0 42 9.5)"><text x="0" y="15" font-family="Cascadia, Segoe UI Emoji" font-size="16px" fill="#000000" text-anchor="start" style="white-space: pre;" direction="ltr">write fqc</text></g><g transform="translate(549.5036743125946 232.2872539136622) rotate(0 103 9.5)"><text x="0" y="15" font-family="Cascadia, Segoe UI Emoji" font-size="16px" fill="#000000" text-anchor="start" style="white-space: pre;" direction="ltr">write node:fqc mapping</text></g><g><g transform="translate(1880.110279966817 83.22046114454298) rotate(0 0.2090865378431772 53.63257750317811)"><path d="M-0.7053907725960016 -1.1179839815944432 C-0.781292912736535 16.702184060633126, -0.11401630379259586 89.18087345719309, 0.195224454626441 107.43389786843922 M1.125140342451632 0.9094704827293754 C0.851368289925158 18.791097743220572, -0.6274937322363258 90.26192504990819, -0.6503281703218817 108.38313898795064" stroke="#000000" stroke-width="1" fill="none"></path></g><g transform="translate(1880.110279966817 83.22046114454298) rotate(0 0.2090865378431772 53.63257750317811)"><path d="M-12.427183478000952 80.39382514615558 C-8.798533832636476 92.07310411102348, -3.676517827370338 99.70164081433661, 0.286255175434053 110.19782197267529 M-10.421267531673802 79.96247030400686 C-6.89989504516473 90.35184434988422, -3.0993953449440257 99.09451574106177, -0.6736450482159853 108.85412616167929" stroke="#000000" stroke-width="1" fill="none"></path></g><g transform="translate(1880.110279966817 83.22046114454298) rotate(0 0.2090865378431772 53.63257750317811)"><path d="M8.09247689752097 80.64589747520961 C4.451579692006614 92.1152676107773, 2.305126223725744 99.65451531050434, 0.286255175434053 110.19782197267529 M10.09839284384812 80.21454263306089 C6.885048091070788 90.3327641798579, 3.952682338262121 98.99272615748312, -0.6736450482159853 108.85412616167929" stroke="#000000" stroke-width="1" fill="none"></path></g></g><g transform="translate(1849.8222123170044 52.16748746209248) rotate(0 32.5 10)"><text x="0" y="14" font-family="Virgil, Segoe UI Emoji" font-size="16px" fill="#000000" text-anchor="start" style="white-space: pre;" direction="ltr">mutation</text></g><g transform="translate(447.13054960908414 115.07991876185963) rotate(0 103 9.5)"><text x="0" y="15" font-family="Cascadia, Segoe UI Emoji" font-size="16px" fill="#000000" text-anchor="start" style="white-space: pre;" direction="ltr">{"data":{"viewer":...}</text></g><g transform="translate(10 13.564975687855906) rotate(0 419.3126323413067 258.72707765061665)"><path d="M-0.03495971933007241 0.45938821807503705 C256.2896291630183 -0.5456326905879976, 511.7747427951225 -0.6583763782176973, 838.627552978687 0.05833977237343788 M838.7195192098544 -0.6397155500948429 C837.8750640369964 162.4237241729852, 837.5991619326186 325.69646794269613, 839.2797767639087 517.8068315043352 M838.9797161027716 516.7786577551864 C583.0363181099447 514.1843993370569, 328.844826702811 514.477233499769, -0.28876702561974527 517.5810616105101 M0.34245821014046673 517.0544169917009 C0.12288593141679094 395.1128031919262, -0.48364437730665877 273.1515627747199, 0.4225499011576176 0.10627877935767174" stroke="#000000" stroke-width="2.5" fill="none" stroke-dasharray="12 8"></path></g><g transform="translate(1423.986018359084 10) rotate(0 395.33835018382354 254.41815776209674)"><path d="M0.4001588366925717 -0.7327940128743649 C204.54872745084674 -0.8360065860130441, 409.06609718194426 -0.7310722035743844, 790.533326427507 0.7965355016291142 M791.4082030533428 -0.03385877385735512 C790.2045596648745 150.18717191909118, 790.5490944196276 301.26172052585804, 790.7321149347897 508.5528860706715 M790.7227759285446 508.94971561169905 C536.3305122007681 508.9226721299319, 281.46015017587246 509.83159744864986, -0.3188660599291325 508.85273668504044 M0.7317579127848148 508.3225235599904 C-1.4288561366646921 313.5736665894114, -2.1626302503197823 119.36111561858839, 0.5074619390070438 -0.3047421909868717" stroke="#000000" stroke-width="2.5" fill="none" stroke-dasharray="12 8"></path></g><g transform="translate(746.0489556811905 488.78637926944947) rotate(0 47 17.5)"><text x="0" y="25" font-family="Virgil, Segoe UI Emoji" font-size="28px" fill="#000000" text-anchor="start" style="white-space: pre;" direction="ltr">caching</text></g><g transform="translate(2061.546383634226 475.5697714065465) rotate(0 73.5 17.5)"><text x="0" y="25" font-family="Virgil, Segoe UI Emoji" font-size="28px" fill="#000000" text-anchor="start" style="white-space: pre;" direction="ltr">invalidation</text></g></svg>